<?xml version='1.0' standalone='no'?>
<!DOCTYPE svg PUBLIC '-//W3C//DTD SVG 20010904//EN' 'http://www.w3.org/TR/2001/REC-SVG-20010904/DTD/svg10.dtd'>
<svg version='1.0' xmlns='http://www.w3.org/2000/svg' width='328.000000pt' height='85.000000pt'
	viewBox='0 0 328.000000 85.000000' preserveAspectRatio='xMidYMid meet'>

	<g transform='translate(0.000000,85.000000) scale(0.100000,-0.100000)' fill='rgb(220, 38, 38)' stroke='none'>
		<path d="M100 440 c0 -338 -4 -316 59 -304 l31 6 2 210 3 209 55 -203 55 -203 45 4 c25 1 48 5 52 8 5 2 8 134 8 294 l0 289 -45 0 -45 0 -2 -167 -3 -168 -45 168 -45 167 -62 0 -63 0 0 -310z" />
		<path d="M536 723 c-14 -69 -86 -514 -86 -532 0 -15 6 -21 23 -21 53 0 63 10 73 63 l9 52 53 3 c57 3 56 4 67 -62 l6 -38 45 5 c25 2 47 7 49 9 2 2 -17 125 -43 273 l-47 270 -72 3 c-71 3 -71 3 -77 -25z m94 -219 c11 -65 20 -122 20 -126 0 -5 -18 -8 -40 -8 -31 0 -40 4 -40 18 0 25 34 241 37 238 2 -2 12 -57 23 -122z" />
		<path d="M760 710 l0 -40 50 0 50 0 0 -236 0 -236 23 6 c12 3 34 6 50 6 l27 0 0 229 0 230 48 3 c47 3 47 3 50 41 l3 37 -150 0 -151 0 0 -40z" />
		<path d="M1090 529 c0 -181 3 -227 16 -254 40 -85 187 -86 248 -2 20 27 21 42 21 250 l0 222 -47 3 -48 3 0 -213 c0 -117 -4 -218 -8 -224 -11 -16 -47 -23 -66 -12 -14 8 -16 35 -16 228 l0 220 -50 0 -50 0 0 -221z" />
		<path d="M1436 743 c-3 -4 -6 -121 -6 -260 l1 -253 50 0 49 0 0 105 0 105 33 0 c46 0 57 -15 57 -80 0 -30 3 -72 6 -92 7 -38 7 -38 53 -38 l47 0 -4 98 c-4 95 -21 152 -44 152 -6 0 -1 11 12 25 19 20 25 40 28 90 8 125 -27 155 -180 155 -52 0 -98 -3 -102 -7z m182 -138 c4 -67 -9 -85 -60 -85 l-28 0 0 76 0 75 43 -3 42 -3 3 -60z" />
		<path d="M1780 490 l0 -260 48 0 c26 0 84 -3 130 -7 l82 -6 0 40 c0 39 -1 41 -37 47 -21 3 -57 6 -80 6 l-43 0 0 75 0 75 65 0 65 0 0 35 0 35 -50 1 c-27 1 -56 2 -62 3 -9 1 -14 24 -16 69 l-3 67 81 0 80 0 0 40 0 40 -130 0 -130 0 0 -260z" />
		<path d="M2100 485 l0 -265 50 0 50 0 0 110 0 110 60 0 60 0 0 40 0 40 -60 0 -60 0 0 75 0 75 75 0 75 0 0 40 0 40 -125 0 -125 0 0 -265z" />
		<path d="M2390 481 c0 -149 3 -272 8 -274 4 -3 62 -8 130 -12 l122 -7 0 40 c0 46 -11 52 -102 52 l-58 0 0 235 0 235 -50 0 -50 0 0 -269z" />
		<path d="M2682 468 l3 -283 48 -5 47 -6 0 288 0 288 -50 0 -50 0 2 -282z" />
		<path d="M2840 741 c0 -5 21 -68 46 -140 l46 -131 -51 -146 c-28 -81 -50 -148 -48 -150 1 -2 21 -6 44 -10 l41 -6 37 112 c20 61 39 109 41 107 3 -3 21 -55 40 -118 19 -62 35 -114 37 -115 10 -8 97 -13 97 -5 0 5 -23 80 -51 166 l-50 156 50 145 51 144 -48 0 -48 0 -35 -106 -34 -106 -35 106 -34 106 -48 0 c-26 0 -48 -4 -48 -9z" />
	</g>
</svg>